<?xml version="1.0" encoding="utf-8"?>
<!-- Generator: Adobe Illustrator 24.1.2, SVG Export Plug-In . SVG Version: 6.00 Build 0)  -->
<svg version="1.1" id="Слой_1" xmlns="http://www.w3.org/2000/svg" xmlns:xlink="http://www.w3.org/1999/xlink" x="0px" y="0px"
	 viewBox="0 0 17 15" style="enable-background:new 0 0 17 15;" xml:space="preserve">
<style type="text/css">
	.st0{fill:#FFFFFF;}
</style>
<path class="st0" d="M15.1,4.3v0.4c0,1.6-0.3,3.2-1,4.7c-0.7,1.5-1.8,2.8-3.2,3.8c-1.5,1-3.1,1.6-5.1,1.6c-1.9,0-3.5-0.5-5-1.6
	c0.2,0,0.4,0,0.8,0c1.6,0,2.9-0.5,4.1-1.5c-0.7,0-1.3-0.2-1.9-0.7c-0.6-0.5-1-1.1-1.2-1.8c0.1,0,0.4,0.1,0.6,0.1
	c0.3,0,0.6,0,0.9-0.1C3.3,9.1,2.7,8.7,2.2,8C1.7,7.4,1.4,6.6,1.4,5.8V5.7c0.5,0.3,1,0.4,1.5,0.4c-1-0.7-1.5-1.6-1.5-2.9
	c0-0.6,0.2-1.2,0.5-1.8c1.7,2.3,4,3.6,6.8,3.7C8.6,4.9,8.6,4.6,8.6,4.4c0-1,0.3-1.8,1-2.5c0.6-0.7,1.4-1,2.3-1c1,0,1.8,0.4,2.4,1.1
	c0.8-0.2,1.5-0.5,2.1-0.8c-0.3,0.8-0.7,1.5-1.4,2c0.7-0.1,1.4-0.3,1.9-0.6C16.3,3.2,15.8,3.8,15.1,4.3z"/>
</svg>
